<svg width="17" height="23" viewBox="0 0 17 23" fill="none" xmlns="http://www.w3.org/2000/svg">
<path d="M8.16632 0.833344C6.08979 0.835078 4.09831 1.65847 2.62686 3.12367C1.15541 4.58888 0.323555 6.57683 0.312988 8.65334C0.312988 11.7667 2.05966 14.3733 3.33966 16.2733L3.57299 16.62C4.84651 18.4658 6.2127 20.2458 7.66632 21.9533L8.17299 22.5467L8.67966 21.9533C10.1331 20.2457 11.4993 18.4656 12.773 16.62L13.0063 16.2667C14.2797 14.3667 16.0263 11.7667 16.0263 8.65334C16.0157 6.57568 15.183 4.58672 13.7101 3.12132C12.2372 1.65593 10.244 0.833317 8.16632 0.833344ZM8.16632 12.1667C7.30136 12.1667 6.45582 11.9102 5.73663 11.4296C5.01744 10.9491 4.4569 10.2661 4.12589 9.46695C3.79488 8.66782 3.70827 7.78849 3.87702 6.94015C4.04577 6.0918 4.46229 5.31255 5.07391 4.70093C5.68553 4.08931 6.46478 3.67279 7.31313 3.50404C8.16147 3.3353 9.0408 3.4219 9.83992 3.75291C10.639 4.08392 11.3221 4.64446 11.8026 5.36365C12.2832 6.08284 12.5397 6.92838 12.5397 7.79334C12.5397 8.95322 12.0789 10.0656 11.2587 10.8858C10.4386 11.7059 9.3262 12.1667 8.16632 12.1667Z" fill="#4EC259"/>
</svg>
