<svg width="18" height="19" viewBox="0 0 18 19" fill="none" xmlns="http://www.w3.org/2000/svg">
<path d="M17.4873 14.6402L13.4223 10.9442C13.2301 10.7696 12.9776 10.6764 12.7181 10.6845C12.4585 10.6925 12.2123 10.8011 12.0313 10.9872L9.63828 13.4482C9.06228 13.3382 7.90428 12.9772 6.71228 11.7882C5.52028 10.5952 5.15928 9.43424 5.05228 8.86224L7.51128 6.46824C7.69769 6.28737 7.80642 6.04106 7.81444 5.78145C7.82247 5.52183 7.72917 5.26928 7.55428 5.07724L3.85928 1.01324C3.68432 0.820596 3.44116 0.703743 3.18143 0.687499C2.92171 0.671254 2.66588 0.756897 2.46828 0.926239L0.298282 2.78724C0.125393 2.96075 0.0222015 3.19169 0.00828196 3.43624C-0.00671804 3.68624 -0.292718 9.60824 4.29928 14.2022C8.30528 18.2072 13.3233 18.5002 14.7053 18.5002C14.9073 18.5002 15.0313 18.4942 15.0643 18.4922C15.3088 18.4786 15.5396 18.3749 15.7123 18.2012L17.5723 16.0302C17.7423 15.8333 17.8286 15.5776 17.8127 15.3179C17.7968 15.0582 17.68 14.815 17.4873 14.6402Z" fill="#4EC259"/>
</svg>
