<svg width="111" height="101" viewBox="0 0 111 101" fill="none" xmlns="http://www.w3.org/2000/svg">
<g clip-path="url(#clip0_1_123)">
<path d="M109.079 41.2193C108.014 43.9741 106.727 46.6368 105.232 49.1808C104.657 50.1355 104.082 51.1712 103.38 52.2532C98.4981 59.9659 89.976 70.8551 75.4275 83.59L55.4966 101L35.5772 83.5727C22.2938 71.9544 14.0419 61.8753 8.99882 54.3419C8.27427 53.2542 7.61298 52.23 7.01493 51.258C5.00525 48.0813 3.29934 44.72 1.92008 41.2193C-0.668701 34.2196 -0.619407 26.5082 2.05864 19.5425C4.73669 12.5769 9.85796 6.83967 16.4545 3.41522C23.051 -0.00923502 30.6658 -0.883654 37.8595 0.957235C45.0532 2.79812 51.3276 7.22678 55.4966 13.4061C59.6631 7.22057 65.9382 2.78597 73.1348 0.941298C80.3313 -0.903373 87.9503 -0.0301792 94.5502 3.39569C101.15 6.82155 106.273 12.5625 108.951 19.5324C111.628 26.5023 111.673 34.2179 109.079 41.2193Z" fill="#47AA51"/>
<path d="M91.2296 1.92661C84.8556 -0.457357 77.8713 -0.621976 71.3934 1.45907C64.9155 3.54012 59.3182 7.74664 55.4966 13.406C51.3276 7.22661 45.0532 2.79796 37.8595 0.957071C30.6658 -0.883817 23.051 -0.00939841 16.4545 3.41506C9.85796 6.83951 4.73669 12.5767 2.05864 19.5424C-0.619407 26.508 -0.668701 34.2195 1.92008 41.2192C3.2995 44.7208 5.00742 48.0822 7.02068 51.2578C7.59572 52.2299 8.28002 53.254 9.00457 54.3418C14.0477 61.8635 22.2995 71.9543 35.5829 83.5725L55.4966 101L75.4217 83.5725C89.976 70.8434 98.4923 59.9484 103.38 52.2357C104.082 51.1537 104.657 50.118 105.232 49.1807C106.728 46.6432 108.015 43.9862 109.079 41.2365C110.474 37.4763 111.119 33.4763 110.977 29.465C110.835 25.4538 109.909 21.5101 108.251 17.8593C106.594 14.2085 104.237 10.9222 101.316 8.1884C98.3957 5.45456 94.9681 3.32675 91.2296 1.92661ZM73.4033 81.2466L55.4966 96.9208L37.5841 81.2466C27.2333 72.2089 18.8895 63.1596 12.7193 54.3418H57.7277L63.0123 33.8999L70.1428 78.4519L78.8662 42.6078L83.0583 63.4373L87.4056 52.1894L99.6999 52.2299C95.1341 59.121 87.0433 69.3217 73.4091 81.2466H73.4033ZM106.181 40.1661C105.174 42.7543 103.96 45.2563 102.552 47.6474C102.236 48.226 101.931 48.7004 101.644 49.1807L85.3124 49.1344L83.9668 52.606L79.1135 28.5305L70.7351 62.9802L63.7081 18.92L55.3643 51.2578H10.6434C10.2869 50.6792 9.94764 50.1643 9.62562 49.6436C7.71882 46.6346 6.09773 43.4518 4.78378 40.1372C2.4523 33.843 2.494 26.9073 4.901 20.642C7.30799 14.3766 11.9134 9.21602 17.8462 6.13615C23.7789 3.05628 30.6277 2.27073 37.0972 3.92805C43.5666 5.58538 49.2082 9.57069 52.9549 15.1302L55.4966 18.8969L58.0325 15.1302C61.7766 9.56445 67.419 5.57317 73.8913 3.91204C80.3636 2.25092 87.2167 3.03524 93.1529 6.11653C99.0891 9.19781 103.696 14.3622 106.103 20.6318C108.509 26.9015 108.547 33.8413 106.209 40.1372L106.181 40.1661Z" fill="white"/>
</g>
<defs>
<clipPath id="clip0_1_123">
<rect width="111" height="101" fill="white"/>
</clipPath>
</defs>
</svg>
