<svg width="109" height="122" viewBox="0 0 109 122" fill="none" xmlns="http://www.w3.org/2000/svg">
<path d="M46.3593 99.8823C65.8433 109.915 90.7287 118.868 104.798 104.799C118.868 90.7289 109.915 65.8435 99.8756 46.366L95.0887 55.1765C95.0887 55.1765 103.757 73.4961 88.6199 88.6266C73.4829 103.757 55.1633 95.0954 55.1633 95.0954L46.3593 99.8823Z" fill="#47AA51"/>
<path d="M106.351 106.345C126.45 86.2461 103.557 47.4268 92.5532 28.7708C86.7118 18.8607 74.7769 1.97064 60.4873 0.152905C54.0574 -0.649225 48.009 1.70542 42.5235 7.19742L45.6156 10.296C50.1437 5.76782 54.8401 3.82718 59.9246 4.47406C72.8233 6.11066 84.396 23.5505 88.7754 30.9961C98.4009 47.3169 120.945 85.5474 103.246 103.246C85.5475 120.945 47.3104 98.4074 30.9897 88.7818C23.5699 84.4025 6.13008 72.8298 4.4676 59.931C3.82072 54.8465 5.71608 50.1631 10.2895 45.622L7.19096 42.5235C1.70543 48.009 -0.649212 54.0509 0.152918 60.4873C0.935642 66.6262 5.68374 78.9169 28.7709 92.5531C47.4269 103.557 86.2461 126.45 106.351 106.345Z" fill="white"/>
<path d="M38.8652 5L27.8683 15.9969C26.6713 17.2079 26 18.8419 26 20.5445C26 22.2472 26.6713 23.8812 27.8683 25.0921C29.0792 26.289 30.7132 26.9603 32.4158 26.9603C34.1185 26.9603 35.7525 26.289 36.9634 25.0921L47.9603 14.0951L38.8652 5Z" fill="#47AA51"/>
<path d="M4.20215 39.522L15.1991 28.5251C16.41 27.3281 18.044 26.6568 19.7467 26.6568C21.4493 26.6568 23.0833 27.3281 24.2942 28.5251C25.4912 29.736 26.1625 31.37 26.1625 33.0726C26.1625 34.7753 25.4912 36.4093 24.2942 37.6202L13.2973 48.6171L4.20215 39.522Z" fill="#47AA51"/>
<path d="M148.644 176.188C150.659 174.178 152.257 171.79 153.348 169.16C154.439 166.531 155 163.713 155 160.867C155 158.021 154.439 155.202 153.348 152.573C152.257 149.944 150.659 147.556 148.644 145.545L106.345 103.253L103.246 106.351L145.546 148.644C147.202 150.238 148.524 152.146 149.434 154.256C150.344 156.367 150.825 158.638 150.847 160.936C150.869 163.235 150.433 165.515 149.564 167.642C148.695 169.77 147.41 171.704 145.785 173.329C144.16 174.955 142.227 176.24 140.099 177.11C137.972 177.979 135.692 178.416 133.394 178.394C131.095 178.373 128.824 177.893 126.713 176.983C124.602 176.073 122.694 174.752 121.1 173.096L89.9657 141.962C85.9013 137.897 80.3889 135.614 74.6411 135.614C68.8933 135.614 63.3808 137.897 59.3165 141.962C55.2522 146.026 52.9689 151.538 52.9689 157.286C52.9689 163.034 55.2522 168.547 59.3165 172.611L96.6609 209.955L99.7594 206.857L62.4086 169.519C59.1652 166.276 57.3427 161.878 57.3421 157.292C57.3415 152.706 59.1628 148.307 62.4054 145.064C65.6479 141.82 70.0461 139.998 74.6323 139.997C79.2186 139.996 83.6172 141.818 86.8606 145.06L117.995 176.195C122.063 180.252 127.575 182.53 133.321 182.529C139.067 182.528 144.577 180.247 148.644 176.188Z" fill="white"/>
</svg>
