<svg width="79" height="71" viewBox="0 0 79 71" fill="none" xmlns="http://www.w3.org/2000/svg">
<path d="M67.1042 30.1833L48.846 48.3301L28.6758 28.283L46.934 10.1321C49.6088 7.4737 53.2365 5.98022 57.0191 5.98022C60.8018 5.98022 64.4295 7.4737 67.1042 10.1321C69.779 12.7905 71.2816 16.3961 71.2816 20.1556C71.2816 23.9152 69.779 27.5208 67.1042 30.1792V30.1833Z" fill="#1C9E07"/>
<path d="M48.8451 48.3301L30.5869 66.4727C29.2625 67.789 27.6902 68.8331 25.9598 69.5455C24.2294 70.2579 22.3747 70.6245 20.5017 70.6245C18.6288 70.6245 16.7741 70.2579 15.0437 69.5455C13.3133 68.8331 11.741 67.789 10.4166 66.4727C9.09225 65.1564 8.04168 63.5937 7.32492 61.8738C6.60817 60.154 6.23926 58.3107 6.23926 56.4491C6.23926 54.5876 6.60817 52.7443 7.32492 51.0244C8.04168 49.3046 9.09225 47.7419 10.4166 46.4256L28.6707 28.283L48.8451 48.3301Z" fill="#47AA51"/>
<path d="M28.6756 28.2872L10.4215 46.4298C9.09714 47.7461 8.04657 49.3088 7.32981 51.0287C6.61305 52.7485 6.24414 54.5918 6.24414 56.4534C6.24414 58.3149 6.61305 60.1582 7.32981 61.878C8.04657 63.5979 9.09714 65.1606 10.4215 66.4769C11.7459 67.7932 13.3182 68.8373 15.0486 69.5497C16.779 70.2621 18.6337 70.6288 20.5066 70.6288C22.3796 70.6288 24.2343 70.2621 25.9647 69.5497C27.6951 68.8373 29.2673 67.7932 30.5917 66.4769L48.85 48.3343L28.6756 28.2872ZM29.1378 65.0402C26.8339 67.2467 23.7507 68.4665 20.5514 68.437C17.352 68.4076 14.2921 67.1313 12.0297 64.8827C9.76728 62.6342 8.48319 59.5929 8.45356 56.4131C8.42394 53.2332 9.65116 50.1689 11.8713 47.8791L28.6798 31.1732L45.9463 48.3301L29.1378 65.0402Z" fill="white"/>
<path d="M72.8394 68.4607C70.3388 70.1151 67.3388 70.8578 64.3495 70.5626C61.3602 70.2673 58.566 68.9523 56.4418 66.8411C54.3177 64.7299 52.9946 61.9528 52.6975 58.9817C52.4005 56.0107 53.1477 53.0291 54.8123 50.5436L72.8394 68.4607Z" fill="#47AA51"/>
<path d="M76.4783 64.8647L58.4512 46.9477C60.9519 45.2933 63.9518 44.5506 66.9411 44.8458C69.9304 45.1411 72.7246 46.4561 74.8488 48.5673C76.9729 50.6785 78.296 53.4556 78.5931 56.4267C78.8901 59.3977 78.1429 62.3793 76.4783 64.8647Z" fill="#47AA51"/>
<path d="M76.4789 64.8647L76.4369 64.9357C75.5005 66.3063 74.3113 67.4882 72.9323 68.4189L72.8609 68.4607L54.8127 50.5352L54.8548 50.4684C55.7912 49.0978 56.9803 47.9159 58.3593 46.9852L58.4308 46.9393L76.4789 64.8647Z" fill="#1C9E07"/>
<path d="M74.8275 48.5682C73.6221 47.3666 72.1897 46.4137 70.6125 45.7643C69.0353 45.1149 67.3445 44.7819 65.6374 44.7843V46.8224C67.6245 46.8231 69.5739 47.3612 71.2768 48.379C72.9797 49.3968 74.3718 50.856 75.3041 52.6001C76.2363 54.3442 76.6736 56.3075 76.5689 58.2797C76.4642 60.2519 75.8215 62.1587 74.7098 63.7956C73.9248 64.9468 72.9265 65.9389 71.7683 66.7191C69.661 68.1304 67.1254 68.7694 64.5961 68.5266C62.0667 68.2838 59.7011 67.1743 57.9045 65.3882C56.1079 63.602 54.9922 61.2505 54.7486 58.7366C54.505 56.2226 55.1486 53.7027 56.5692 51.6086C56.9611 51.032 57.4071 50.4937 57.9013 50.0007C59.9591 47.9651 62.7425 46.8198 65.6458 46.8141V44.7759C63.9382 44.775 62.2473 45.1088 60.6696 45.758C59.092 46.4073 57.6586 47.3594 56.4515 48.5598C55.8614 49.1425 55.3308 49.7819 54.8673 50.4685C53.175 52.9544 52.4065 55.9484 52.6937 58.9363C52.981 61.9242 54.3062 64.7194 56.4416 66.8418C58.577 68.9642 61.3894 70.2812 64.3956 70.5668C67.4018 70.8523 70.4143 70.0884 72.9155 68.4064C74.2956 67.4788 75.485 66.298 76.42 64.9274C78.1056 62.4405 78.8684 59.4483 78.5778 56.4637C78.2873 53.4791 76.9614 50.6878 74.8275 48.5682Z" fill="white"/>
</svg>
