<svg width="107" height="108" viewBox="0 0 107 108" fill="none" xmlns="http://www.w3.org/2000/svg">
<path d="M68.9422 16.253L21.1172 64.078C18.7689 66.4263 18.7689 70.2336 21.1172 72.5819L34.4311 85.8958C36.7793 88.2441 40.5867 88.2441 42.9349 85.8958L90.76 38.0707C93.1083 35.7225 93.1083 31.9152 90.76 29.5669L77.4461 16.253C75.0978 13.9047 71.2905 13.9047 68.9422 16.253Z" fill="#47AA51"/>
<path d="M4.81004 80.3869L0 85.1969L21.8178 107.015L26.6278 102.205L4.81004 80.3869Z" fill="#47AA51"/>
<path d="M21.851 73.3148L20.7657 78.2375L11.7148 87.2884L19.722 95.3007L28.7728 86.2499L33.7007 85.1646L21.851 73.3148Z" fill="#1C9E07"/>
<path d="M45.0254 40.1699L68.9377 16.2523C70.0662 15.1254 71.5958 14.4924 73.1906 14.4924C74.7854 14.4924 76.3149 15.1254 77.4434 16.2523L90.7574 29.5664C91.3161 30.1248 91.7592 30.7878 92.0616 31.5175C92.3639 32.2472 92.5195 33.0293 92.5195 33.8192C92.5195 34.6091 92.3639 35.3912 92.0616 36.1209C91.7592 36.8506 91.3161 37.5136 90.7574 38.072L66.8451 61.9844L45.0254 40.1699Z" fill="#1C9E07"/>
<path d="M21.1193 72.5826L34.4334 85.8967C35.5618 87.0237 37.0914 87.6567 38.6862 87.6567C40.281 87.6567 41.8106 87.0237 42.939 85.8967L90.7585 38.072C91.3178 37.514 91.7615 36.8511 92.0642 36.1213C92.367 35.3916 92.5228 34.6093 92.5228 33.8192C92.5228 33.0291 92.367 32.2468 92.0642 31.5171C91.7615 30.7873 91.3178 30.1244 90.7585 29.5664L85.1608 23.9427L106.57 2.50725C106.846 2.23182 107 1.85824 107 1.46872C107 1.07919 106.846 0.705614 106.57 0.430177C106.295 0.154739 105.921 9.17758e-09 105.532 0C105.142 -9.17758e-09 104.769 0.154739 104.493 0.430177L83.0837 21.8812L77.4497 16.2575C76.8919 15.6976 76.2292 15.2534 75.4994 14.9503C74.7696 14.6471 73.9871 14.4911 73.1968 14.4911C72.4066 14.4911 71.6241 14.6471 70.8943 14.9503C70.1645 15.2534 69.5017 15.6976 68.944 16.2575L61.5185 23.6831L59.4414 25.7601L21.1193 64.077C19.9924 65.2055 19.3594 66.735 19.3594 68.3298C19.3594 69.9246 19.9924 71.4542 21.1193 72.5826ZM23.1964 66.1385L25.746 63.5889L34.5736 72.4165L36.6507 70.3394L27.8231 61.5118L31.0997 58.2404L34.4905 61.6365L36.5676 59.5594L33.1716 56.1634L35.9445 53.3905L44.772 62.218L46.8491 60.141L38.0215 51.3134L41.2825 48.0524L44.6734 51.4432L46.7505 49.3661L43.3544 45.9701L46.1429 43.1868L54.9705 52.0144L57.0476 49.9373L48.22 41.1097L51.4706 37.8643L54.8666 41.2551L56.9437 39.1781L53.5477 35.782L56.7983 32.5366L65.6259 41.3642L67.703 39.2871L58.8754 30.4595L61.6639 27.6762L64.9093 31.1761L66.9864 29.099L63.5904 25.703L66.4048 22.8938L75.2324 31.7213L77.3095 29.6443L68.4819 20.8167L71.0367 18.2619C71.6202 17.6832 72.4088 17.3585 73.2306 17.3585C74.0524 17.3585 74.841 17.6832 75.4245 18.2619L88.7386 31.576C89.3173 32.1595 89.642 32.948 89.642 33.7699C89.642 34.5917 89.3173 35.3802 88.7386 35.9638L40.9139 83.7833C40.3303 84.362 39.5418 84.6867 38.72 84.6867C37.8981 84.6867 37.1096 84.362 36.526 83.7833L23.1808 70.5263C22.6021 69.9428 22.2774 69.1543 22.2774 68.3324C22.2774 67.5106 22.6021 66.7221 23.1808 66.1385H23.1964Z" fill="white"/>
</svg>
