<svg>
    <symbol id="icon-geo" width="17" height="23" viewBox="0 0 17 23" fill="none" xmlns="http://www.w3.org/2000/svg">
    <path d="M8.16632 0.833344C6.08979 0.835078 4.09831 1.65847 2.62686 3.12367C1.15541 4.58888 0.323555 6.57683 0.312988 8.65334C0.312988 11.7667 2.05966 14.3733 3.33966 16.2733L3.57299 16.62C4.84651 18.4658 6.2127 20.2458 7.66632 21.9533L8.17299 22.5467L8.67966 21.9533C10.1331 20.2457 11.4993 18.4656 12.773 16.62L13.0063 16.2667C14.2797 14.3667 16.0263 11.7667 16.0263 8.65334C16.0157 6.57568 15.183 4.58672 13.7101 3.12132C12.2372 1.65593 10.244 0.833317 8.16632 0.833344ZM8.16632 12.1667C7.30136 12.1667 6.45582 11.9102 5.73663 11.4296C5.01744 10.9491 4.4569 10.2661 4.12589 9.46695C3.79488 8.66782 3.70827 7.78849 3.87702 6.94015C4.04577 6.0918 4.46229 5.31255 5.07391 4.70093C5.68553 4.08931 6.46478 3.67279 7.31313 3.50404C8.16147 3.3353 9.0408 3.4219 9.83992 3.75291C10.639 4.08392 11.3221 4.64446 11.8026 5.36365C12.2832 6.08284 12.5397 6.92838 12.5397 7.79334C12.5397 8.95322 12.0789 10.0656 11.2587 10.8858C10.4386 11.7059 9.3262 12.1667 8.16632 12.1667Z" fill="#4EC259"/>
    </symbol>
    <symbol id="icon-arrow" width="14" height="8" viewBox="0 0 14 8" fill="none" xmlns="http://www.w3.org/2000/svg">
    <path d="M1 1L7.26087 7L13 1" stroke="white"/>
    </symbol>
    <symbol id="icon-ellipse" width="9" height="9" viewBox="0 0 9 9" fill="none" xmlns="http://www.w3.org/2000/svg">
    <circle cx="4.94995" cy="4.5" r="4" fill="#4EC259"/>
    </symbol>
    <symbol id="icon-person" width="24" height="24" viewBox="0 0 24 24" fill="none" xmlns="http://www.w3.org/2000/svg">
    <path d="M11.7344 12C14.4958 12 16.7344 9.76142 16.7344 7C16.7344 4.23858 14.4958 2 11.7344 2C8.97295 2 6.73438 4.23858 6.73438 7C6.73438 9.76142 8.97295 12 11.7344 12Z" stroke="#868686" stroke-width="2"/>
    <path d="M16.7344 14H17.0864C17.8175 14.0002 18.5234 14.2674 19.0714 14.7513C19.6194 15.2352 19.9718 15.9026 20.0624 16.628L20.4534 19.752C20.4886 20.0334 20.4635 20.3191 20.3798 20.5901C20.2961 20.8611 20.1558 21.1112 19.9681 21.3238C19.7803 21.5364 19.5495 21.7066 19.291 21.8232C19.0324 21.9398 18.7521 22.0001 18.4684 22H5.00044C4.71682 22.0001 4.43643 21.9398 4.17788 21.8232C3.91933 21.7066 3.68854 21.5364 3.50081 21.3238C3.31309 21.1112 3.17272 20.8611 3.08904 20.5901C3.00536 20.3191 2.98027 20.0334 3.01544 19.752L3.40544 16.628C3.49613 15.9022 3.84885 15.2346 4.39727 14.7506C4.94568 14.2667 5.65201 13.9997 6.38344 14H6.73444" stroke="#868686" stroke-width="2" stroke-linecap="round" stroke-linejoin="round"/>
    </symbol>
    <symbol id="icon-phone" width="20" height="20" viewBox="0 0 20 20" fill="none" xmlns="http://www.w3.org/2000/svg">
    <path d="M1.44297 3.59453L3.93906 1.10078C4.24375 0.796094 4.65156 0.625 5.08281 0.625C5.51406 0.625 5.92188 0.79375 6.22656 1.10078L8.91484 3.78437C9.21953 4.08906 9.39062 4.49922 9.39062 4.93047C9.39062 5.36406 9.22188 5.76953 8.91484 6.07656L6.81484 8.17891C7.29324 9.29356 7.98061 10.3063 8.83984 11.1625C9.7 12.0273 10.7055 12.7094 11.8211 13.1922L13.9211 11.0898C14.2258 10.7852 14.6336 10.6141 15.0648 10.6141C15.2776 10.6133 15.4883 10.655 15.6847 10.7366C15.8811 10.8183 16.0592 10.9384 16.2086 11.0898L18.8992 13.7734C19.2039 14.0781 19.375 14.4883 19.375 14.9195C19.375 15.3531 19.2062 15.7586 18.8992 16.0656L16.4055 18.5594C15.8852 19.0797 15.168 19.3773 14.432 19.3773C14.2797 19.3773 14.132 19.3656 13.982 19.3398C10.8789 18.8289 7.79922 17.1766 5.3125 14.6922C2.82812 12.2031 1.17812 9.12344 0.662498 6.01797C0.514843 5.13672 0.810158 4.22969 1.44297 3.59453ZM2.32422 5.73906C2.78125 8.50234 4.26719 11.2586 6.50547 13.4969C8.74375 15.7352 11.4977 17.2211 14.2609 17.6781C14.6078 17.7367 14.9641 17.6195 15.2172 17.3687L17.6664 14.9195L15.0695 12.3203L12.2617 15.1328L12.2406 15.1539L11.7344 14.9664C10.1994 14.402 8.80547 13.5107 7.64924 12.354C6.49301 11.1974 5.60211 9.80315 5.03828 8.26797L4.85078 7.76172L7.68203 4.93281L5.08516 2.33359L2.63594 4.78281C2.38281 5.03594 2.26562 5.39219 2.32422 5.73906Z" fill="#868686"/>
    </symbol>
    <symbol id="icon-heart" width="111" height="101" viewBox="0 0 111 101" fill="none" xmlns="http://www.w3.org/2000/svg">
    <g clip-path="url(#clip0_1_123)">
    <path d="M109.079 41.2193C108.014 43.9741 106.727 46.6368 105.232 49.1808C104.657 50.1355 104.082 51.1712 103.38 52.2532C98.4981 59.9659 89.976 70.8551 75.4275 83.59L55.4966 101L35.5772 83.5727C22.2938 71.9544 14.0419 61.8753 8.99882 54.3419C8.27427 53.2542 7.61298 52.23 7.01493 51.258C5.00525 48.0813 3.29934 44.72 1.92008 41.2193C-0.668701 34.2196 -0.619407 26.5082 2.05864 19.5425C4.73669 12.5769 9.85796 6.83967 16.4545 3.41522C23.051 -0.00923502 30.6658 -0.883654 37.8595 0.957235C45.0532 2.79812 51.3276 7.22678 55.4966 13.4061C59.6631 7.22057 65.9382 2.78597 73.1348 0.941298C80.3313 -0.903373 87.9503 -0.0301792 94.5502 3.39569C101.15 6.82155 106.273 12.5625 108.951 19.5324C111.628 26.5023 111.673 34.2179 109.079 41.2193Z" fill="#47AA51"/>
    <path d="M91.2296 1.92661C84.8556 -0.457357 77.8713 -0.621976 71.3934 1.45907C64.9155 3.54012 59.3182 7.74664 55.4966 13.406C51.3276 7.22661 45.0532 2.79796 37.8595 0.957071C30.6658 -0.883817 23.051 -0.00939841 16.4545 3.41506C9.85796 6.83951 4.73669 12.5767 2.05864 19.5424C-0.619407 26.508 -0.668701 34.2195 1.92008 41.2192C3.2995 44.7208 5.00742 48.0822 7.02068 51.2578C7.59572 52.2299 8.28002 53.254 9.00457 54.3418C14.0477 61.8635 22.2995 71.9543 35.5829 83.5725L55.4966 101L75.4217 83.5725C89.976 70.8434 98.4923 59.9484 103.38 52.2357C104.082 51.1537 104.657 50.118 105.232 49.1807C106.728 46.6432 108.015 43.9862 109.079 41.2365C110.474 37.4763 111.119 33.4763 110.977 29.465C110.835 25.4538 109.909 21.5101 108.251 17.8593C106.594 14.2085 104.237 10.9222 101.316 8.1884C98.3957 5.45456 94.9681 3.32675 91.2296 1.92661ZM73.4033 81.2466L55.4966 96.9208L37.5841 81.2466C27.2333 72.2089 18.8895 63.1596 12.7193 54.3418H57.7277L63.0123 33.8999L70.1428 78.4519L78.8662 42.6078L83.0583 63.4373L87.4056 52.1894L99.6999 52.2299C95.1341 59.121 87.0433 69.3217 73.4091 81.2466H73.4033ZM106.181 40.1661C105.174 42.7543 103.96 45.2563 102.552 47.6474C102.236 48.226 101.931 48.7004 101.644 49.1807L85.3124 49.1344L83.9668 52.606L79.1135 28.5305L70.7351 62.9802L63.7081 18.92L55.3643 51.2578H10.6434C10.2869 50.6792 9.94764 50.1643 9.62562 49.6436C7.71882 46.6346 6.09773 43.4518 4.78378 40.1372C2.4523 33.843 2.494 26.9073 4.901 20.642C7.30799 14.3766 11.9134 9.21602 17.8462 6.13615C23.7789 3.05628 30.6277 2.27073 37.0972 3.92805C43.5666 5.58538 49.2082 9.57069 52.9549 15.1302L55.4966 18.8969L58.0325 15.1302C61.7766 9.56445 67.419 5.57317 73.8913 3.91204C80.3636 2.25092 87.2167 3.03524 93.1529 6.11653C99.0891 9.19781 103.696 14.3622 106.103 20.6318C108.509 26.9015 108.547 33.8413 106.209 40.1372L106.181 40.1661Z" fill="white"/>
    </g>
    <defs>
    <clipPath id="clip0_1_123">
    <rect width="111" height="101" fill="white"/>
    </clipPath>
    </defs>
    </symbol>
    <symbol id="icon-pill" width="79" height="71" viewBox="0 0 79 71" fill="none" xmlns="http://www.w3.org/2000/svg">
    <path d="M67.1042 30.1833L48.846 48.3301L28.6758 28.283L46.934 10.1321C49.6088 7.4737 53.2365 5.98022 57.0191 5.98022C60.8018 5.98022 64.4295 7.4737 67.1042 10.1321C69.779 12.7905 71.2816 16.3961 71.2816 20.1556C71.2816 23.9152 69.779 27.5208 67.1042 30.1792V30.1833Z" fill="#1C9E07"/>
    <path d="M48.8451 48.3301L30.5869 66.4727C29.2625 67.789 27.6902 68.8331 25.9598 69.5455C24.2294 70.2579 22.3747 70.6245 20.5017 70.6245C18.6288 70.6245 16.7741 70.2579 15.0437 69.5455C13.3133 68.8331 11.741 67.789 10.4166 66.4727C9.09225 65.1564 8.04168 63.5937 7.32492 61.8738C6.60817 60.154 6.23926 58.3107 6.23926 56.4491C6.23926 54.5876 6.60817 52.7443 7.32492 51.0244C8.04168 49.3046 9.09225 47.7419 10.4166 46.4256L28.6707 28.283L48.8451 48.3301Z" fill="#47AA51"/>
    <path d="M28.6756 28.2872L10.4215 46.4298C9.09714 47.7461 8.04657 49.3088 7.32981 51.0287C6.61305 52.7485 6.24414 54.5918 6.24414 56.4534C6.24414 58.3149 6.61305 60.1582 7.32981 61.878C8.04657 63.5979 9.09714 65.1606 10.4215 66.4769C11.7459 67.7932 13.3182 68.8373 15.0486 69.5497C16.779 70.2621 18.6337 70.6288 20.5066 70.6288C22.3796 70.6288 24.2343 70.2621 25.9647 69.5497C27.6951 68.8373 29.2673 67.7932 30.5917 66.4769L48.85 48.3343L28.6756 28.2872ZM29.1378 65.0402C26.8339 67.2467 23.7507 68.4665 20.5514 68.437C17.352 68.4076 14.2921 67.1313 12.0297 64.8827C9.76728 62.6342 8.48319 59.5929 8.45356 56.4131C8.42394 53.2332 9.65116 50.1689 11.8713 47.8791L28.6798 31.1732L45.9463 48.3301L29.1378 65.0402Z" fill="white"/>
    <path d="M72.8394 68.4607C70.3388 70.1151 67.3388 70.8578 64.3495 70.5626C61.3602 70.2673 58.566 68.9523 56.4418 66.8411C54.3177 64.7299 52.9946 61.9528 52.6975 58.9817C52.4005 56.0107 53.1477 53.0291 54.8123 50.5436L72.8394 68.4607Z" fill="#47AA51"/>
    <path d="M76.4783 64.8647L58.4512 46.9477C60.9519 45.2933 63.9518 44.5506 66.9411 44.8458C69.9304 45.1411 72.7246 46.4561 74.8488 48.5673C76.9729 50.6785 78.296 53.4556 78.5931 56.4267C78.8901 59.3977 78.1429 62.3793 76.4783 64.8647Z" fill="#47AA51"/>
    <path d="M76.4789 64.8647L76.4369 64.9357C75.5005 66.3063 74.3113 67.4882 72.9323 68.4189L72.8609 68.4607L54.8127 50.5352L54.8548 50.4684C55.7912 49.0978 56.9803 47.9159 58.3593 46.9852L58.4308 46.9393L76.4789 64.8647Z" fill="#1C9E07"/>
    <path d="M74.8275 48.5682C73.6221 47.3666 72.1897 46.4137 70.6125 45.7643C69.0353 45.1149 67.3445 44.7819 65.6374 44.7843V46.8224C67.6245 46.8231 69.5739 47.3612 71.2768 48.379C72.9797 49.3968 74.3718 50.856 75.3041 52.6001C76.2363 54.3442 76.6736 56.3075 76.5689 58.2797C76.4642 60.2519 75.8215 62.1587 74.7098 63.7956C73.9248 64.9468 72.9265 65.9389 71.7683 66.7191C69.661 68.1304 67.1254 68.7694 64.5961 68.5266C62.0667 68.2838 59.7011 67.1743 57.9045 65.3882C56.1079 63.602 54.9922 61.2505 54.7486 58.7366C54.505 56.2226 55.1486 53.7027 56.5692 51.6086C56.9611 51.032 57.4071 50.4937 57.9013 50.0007C59.9591 47.9651 62.7425 46.8198 65.6458 46.8141V44.7759C63.9382 44.775 62.2473 45.1088 60.6696 45.758C59.092 46.4073 57.6586 47.3594 56.4515 48.5598C55.8614 49.1425 55.3308 49.7819 54.8673 50.4685C53.175 52.9544 52.4065 55.9484 52.6937 58.9363C52.981 61.9242 54.3062 64.7194 56.4416 66.8418C58.577 68.9642 61.3894 70.2812 64.3956 70.5668C67.4018 70.8523 70.4143 70.0884 72.9155 68.4064C74.2956 67.4788 75.485 66.298 76.42 64.9274C78.1056 62.4405 78.8684 59.4483 78.5778 56.4637C78.2873 53.4791 76.9614 50.6878 74.8275 48.5682Z" fill="white"/>
    </symbol>
    <symbol id="icon-pill2" width="79" height="46" viewBox="0 0 79 46" fill="none" xmlns="http://www.w3.org/2000/svg">
    <path d="M67.1042 30.1833L48.846 48.3301L28.6758 28.283L46.934 10.1321C49.6088 7.4737 53.2365 5.98022 57.0191 5.98022C60.8018 5.98022 64.4295 7.4737 67.1042 10.1321C69.779 12.7905 71.2816 16.3961 71.2816 20.1556C71.2816 23.9152 69.779 27.5208 67.1042 30.1792V30.1833Z" fill="#47AA51"/>
    <path d="M48.8451 48.3301L30.5869 66.4727C29.2625 67.789 27.6902 68.8331 25.9598 69.5455C24.2294 70.2579 22.3747 70.6245 20.5017 70.6245C18.6288 70.6245 16.7741 70.2579 15.0437 69.5455C13.3133 68.8331 11.741 67.789 10.4166 66.4727C9.09225 65.1564 8.04168 63.5937 7.32492 61.8738C6.60817 60.154 6.23926 58.3107 6.23926 56.4491C6.23926 54.5876 6.60817 52.7443 7.32492 51.0244C8.04168 49.3046 9.09225 47.7419 10.4166 46.4256L28.6707 28.283L48.8451 48.3301Z" fill="#47AA51"/>
    <path d="M28.6756 28.2872L10.4215 46.4298C9.09714 47.7461 8.04657 49.3088 7.32981 51.0287C6.61305 52.7485 6.24414 54.5918 6.24414 56.4534C6.24414 58.3149 6.61305 60.1582 7.32981 61.878C8.04657 63.5979 9.09714 65.1606 10.4215 66.4769C11.7459 67.7932 13.3182 68.8373 15.0486 69.5497C16.779 70.2621 18.6337 70.6288 20.5066 70.6288C22.3796 70.6288 24.2343 70.2621 25.9647 69.5497C27.6951 68.8373 29.2673 67.7932 30.5917 66.4769L48.85 48.3343L28.6756 28.2872ZM29.1378 65.0402C26.8339 67.2467 23.7507 68.4665 20.5514 68.437C17.352 68.4076 14.2921 67.1313 12.0297 64.8827C9.76728 62.6342 8.48319 59.5929 8.45356 56.4131C8.42394 53.2332 9.65116 50.1689 11.8713 47.8791L28.6798 31.1732L45.9463 48.3301L29.1378 65.0402Z" fill="white"/>
    <path d="M76.4783 64.8647L58.4512 46.9477C60.9519 45.2933 63.9518 44.5506 66.9411 44.8458C69.9304 45.1411 72.7246 46.4561 74.8488 48.5673C76.9729 50.6785 78.296 53.4556 78.5931 56.4267C78.8901 59.3977 78.1429 62.3793 76.4783 64.8647Z" fill="#47AA51"/>
    <path d="M74.8275 48.5682C73.6221 47.3666 72.1897 46.4137 70.6125 45.7643C69.0353 45.1149 67.3445 44.7819 65.6374 44.7843V46.8224C67.6245 46.8231 69.5739 47.3612 71.2768 48.379C72.9797 49.3968 74.3718 50.856 75.3041 52.6001C76.2363 54.3442 76.6736 56.3075 76.5689 58.2797C76.4642 60.2519 75.8215 62.1587 74.7098 63.7956C73.9248 64.9468 72.9265 65.9389 71.7683 66.7191C69.661 68.1304 67.1254 68.7694 64.5961 68.5266C62.0667 68.2838 59.7011 67.1743 57.9045 65.3882C56.1079 63.602 54.9922 61.2505 54.7486 58.7366C54.505 56.2226 55.1486 53.7027 56.5692 51.6086C56.9611 51.032 57.4071 50.4937 57.9013 50.0007C59.9591 47.9651 62.7425 46.8198 65.6458 46.8141V44.7759C63.9382 44.775 62.2473 45.1088 60.6696 45.758C59.092 46.4073 57.6586 47.3594 56.4515 48.5598C55.8614 49.1425 55.3308 49.7819 54.8673 50.4685C53.175 52.9544 52.4065 55.9484 52.6937 58.9363C52.981 61.9242 54.3062 64.7194 56.4416 66.8418C58.577 68.9642 61.3894 70.2812 64.3956 70.5668C67.4018 70.8523 70.4143 70.0884 72.9155 68.4064C74.2956 67.4788 75.485 66.298 76.42 64.9274C78.1056 62.4405 78.8684 59.4483 78.5778 56.4637C78.2873 53.4791 76.9614 50.6878 74.8275 48.5682Z" fill="white"/>
    </symbol>
    <symbol id="icon-syringe" width="107" height="108" viewBox="0 0 107 108" fill="none" xmlns="http://www.w3.org/2000/svg">
    <path d="M68.9422 16.253L21.1172 64.078C18.7689 66.4263 18.7689 70.2336 21.1172 72.5819L34.4311 85.8958C36.7793 88.2441 40.5867 88.2441 42.9349 85.8958L90.76 38.0707C93.1083 35.7225 93.1083 31.9152 90.76 29.5669L77.4461 16.253C75.0978 13.9047 71.2905 13.9047 68.9422 16.253Z" fill="#47AA51"/>
    <path d="M4.81004 80.3869L0 85.1969L21.8178 107.015L26.6278 102.205L4.81004 80.3869Z" fill="#47AA51"/>
    <path d="M21.851 73.3148L20.7657 78.2375L11.7148 87.2884L19.722 95.3007L28.7728 86.2499L33.7007 85.1646L21.851 73.3148Z" fill="#1C9E07"/>
    <path d="M45.0254 40.1699L68.9377 16.2523C70.0662 15.1254 71.5958 14.4924 73.1906 14.4924C74.7854 14.4924 76.3149 15.1254 77.4434 16.2523L90.7574 29.5664C91.3161 30.1248 91.7592 30.7878 92.0616 31.5175C92.3639 32.2472 92.5195 33.0293 92.5195 33.8192C92.5195 34.6091 92.3639 35.3912 92.0616 36.1209C91.7592 36.8506 91.3161 37.5136 90.7574 38.072L66.8451 61.9844L45.0254 40.1699Z" fill="#1C9E07"/>
    <path d="M21.1193 72.5826L34.4334 85.8967C35.5618 87.0237 37.0914 87.6567 38.6862 87.6567C40.281 87.6567 41.8106 87.0237 42.939 85.8967L90.7585 38.072C91.3178 37.514 91.7615 36.8511 92.0642 36.1213C92.367 35.3916 92.5228 34.6093 92.5228 33.8192C92.5228 33.0291 92.367 32.2468 92.0642 31.5171C91.7615 30.7873 91.3178 30.1244 90.7585 29.5664L85.1608 23.9427L106.57 2.50725C106.846 2.23182 107 1.85824 107 1.46872C107 1.07919 106.846 0.705614 106.57 0.430177C106.295 0.154739 105.921 9.17758e-09 105.532 0C105.142 -9.17758e-09 104.769 0.154739 104.493 0.430177L83.0837 21.8812L77.4497 16.2575C76.8919 15.6976 76.2292 15.2534 75.4994 14.9503C74.7696 14.6471 73.9871 14.4911 73.1968 14.4911C72.4066 14.4911 71.6241 14.6471 70.8943 14.9503C70.1645 15.2534 69.5017 15.6976 68.944 16.2575L61.5185 23.6831L59.4414 25.7601L21.1193 64.077C19.9924 65.2055 19.3594 66.735 19.3594 68.3298C19.3594 69.9246 19.9924 71.4542 21.1193 72.5826ZM23.1964 66.1385L25.746 63.5889L34.5736 72.4165L36.6507 70.3394L27.8231 61.5118L31.0997 58.2404L34.4905 61.6365L36.5676 59.5594L33.1716 56.1634L35.9445 53.3905L44.772 62.218L46.8491 60.141L38.0215 51.3134L41.2825 48.0524L44.6734 51.4432L46.7505 49.3661L43.3544 45.9701L46.1429 43.1868L54.9705 52.0144L57.0476 49.9373L48.22 41.1097L51.4706 37.8643L54.8666 41.2551L56.9437 39.1781L53.5477 35.782L56.7983 32.5366L65.6259 41.3642L67.703 39.2871L58.8754 30.4595L61.6639 27.6762L64.9093 31.1761L66.9864 29.099L63.5904 25.703L66.4048 22.8938L75.2324 31.7213L77.3095 29.6443L68.4819 20.8167L71.0367 18.2619C71.6202 17.6832 72.4088 17.3585 73.2306 17.3585C74.0524 17.3585 74.841 17.6832 75.4245 18.2619L88.7386 31.576C89.3173 32.1595 89.642 32.948 89.642 33.7699C89.642 34.5917 89.3173 35.3802 88.7386 35.9638L40.9139 83.7833C40.3303 84.362 39.5418 84.6867 38.72 84.6867C37.8981 84.6867 37.1096 84.362 36.526 83.7833L23.1808 70.5263C22.6021 69.9428 22.2774 69.1543 22.2774 68.3324C22.2774 67.5106 22.6021 66.7221 23.1808 66.1385H23.1964Z" fill="white"/>
    </symbol>
    <symbol id="icon-statoscope" width="109" height="122" viewBox="0 0 109 122" fill="none" xmlns="http://www.w3.org/2000/svg">
    <path d="M46.3593 99.8823C65.8433 109.915 90.7287 118.868 104.798 104.799C118.868 90.7289 109.915 65.8435 99.8756 46.366L95.0887 55.1765C95.0887 55.1765 103.757 73.4961 88.6199 88.6266C73.4829 103.757 55.1633 95.0954 55.1633 95.0954L46.3593 99.8823Z" fill="#47AA51"/>
    <path d="M106.351 106.345C126.45 86.2461 103.557 47.4268 92.5532 28.7708C86.7118 18.8607 74.7769 1.97064 60.4873 0.152905C54.0574 -0.649225 48.009 1.70542 42.5235 7.19742L45.6156 10.296C50.1437 5.76782 54.8401 3.82718 59.9246 4.47406C72.8233 6.11066 84.396 23.5505 88.7754 30.9961C98.4009 47.3169 120.945 85.5474 103.246 103.246C85.5475 120.945 47.3104 98.4074 30.9897 88.7818C23.5699 84.4025 6.13008 72.8298 4.4676 59.931C3.82072 54.8465 5.71608 50.1631 10.2895 45.622L7.19096 42.5235C1.70543 48.009 -0.649212 54.0509 0.152918 60.4873C0.935642 66.6262 5.68374 78.9169 28.7709 92.5531C47.4269 103.557 86.2461 126.45 106.351 106.345Z" fill="white"/>
    <path d="M38.8652 5L27.8683 15.9969C26.6713 17.2079 26 18.8419 26 20.5445C26 22.2472 26.6713 23.8812 27.8683 25.0921C29.0792 26.289 30.7132 26.9603 32.4158 26.9603C34.1185 26.9603 35.7525 26.289 36.9634 25.0921L47.9603 14.0951L38.8652 5Z" fill="#47AA51"/>
    <path d="M4.20215 39.522L15.1991 28.5251C16.41 27.3281 18.044 26.6568 19.7467 26.6568C21.4493 26.6568 23.0833 27.3281 24.2942 28.5251C25.4912 29.736 26.1625 31.37 26.1625 33.0726C26.1625 34.7753 25.4912 36.4093 24.2942 37.6202L13.2973 48.6171L4.20215 39.522Z" fill="#47AA51"/>
    <path d="M148.644 176.188C150.659 174.178 152.257 171.79 153.348 169.16C154.439 166.531 155 163.713 155 160.867C155 158.021 154.439 155.202 153.348 152.573C152.257 149.944 150.659 147.556 148.644 145.545L106.345 103.253L103.246 106.351L145.546 148.644C147.202 150.238 148.524 152.146 149.434 154.256C150.344 156.367 150.825 158.638 150.847 160.936C150.869 163.235 150.433 165.515 149.564 167.642C148.695 169.77 147.41 171.704 145.785 173.329C144.16 174.955 142.227 176.24 140.099 177.11C137.972 177.979 135.692 178.416 133.394 178.394C131.095 178.373 128.824 177.893 126.713 176.983C124.602 176.073 122.694 174.752 121.1 173.096L89.9657 141.962C85.9013 137.897 80.3889 135.614 74.6411 135.614C68.8933 135.614 63.3808 137.897 59.3165 141.962C55.2522 146.026 52.9689 151.538 52.9689 157.286C52.9689 163.034 55.2522 168.547 59.3165 172.611L96.6609 209.955L99.7594 206.857L62.4086 169.519C59.1652 166.276 57.3427 161.878 57.3421 157.292C57.3415 152.706 59.1628 148.307 62.4054 145.064C65.6479 141.82 70.0461 139.998 74.6323 139.997C79.2186 139.996 83.6172 141.818 86.8606 145.06L117.995 176.195C122.063 180.252 127.575 182.53 133.321 182.529C139.067 182.528 144.577 180.247 148.644 176.188Z" fill="white"/>
    </symbol>
    <symbol id="icon-big-arrow" width="30" height="11" viewBox="0 0 30 11" fill="none" xmlns="http://www.w3.org/2000/svg">
    <g clip-path="url(#clip0_2000_313)">
    <path d="M30 5.5L21.3699 11L21.3699 6.5L-2.84124e-07 6.5L-1.96701e-07 4.5L21.3699 4.5L21.3699 -3.77235e-07L30 5.5Z" fill="#4EC259"/>
    </g>
    <defs>
    <clipPath id="clip0_2000_313">
    <rect width="11" height="30" fill="white" transform="translate(30) rotate(90)"/>
    </clipPath>
    </defs>
    </symbol>
    <symbol id="icon-headphones" width="24" height="24" viewBox="0 0 24 24" fill="none" xmlns="http://www.w3.org/2000/svg">
    <path d="M22.5337 10.3273V8.9916C22.5337 6.58992 21.4472 4.33187 19.4741 2.63352C17.5009 0.935171 14.8768 0 12.0863 0C9.29573 0 6.67251 0.935365 4.69934 2.63352C2.72617 4.33168 1.63968 6.58992 1.63968 8.9916V10.325H1.55794C1.14488 10.3253 0.748853 10.4667 0.456773 10.7181C0.164693 10.9695 0.000418414 11.3104 0 11.6659L0 16.8653C0.000418414 17.2209 0.164693 17.5617 0.456773 17.8131C0.748853 18.0645 1.14488 18.2059 1.55794 18.2063H2.07545C2.38204 18.2066 2.68182 18.1285 2.93684 17.982C2.96242 18.3289 3.14347 18.6536 3.44183 18.8878C3.74018 19.122 4.13252 19.2474 4.53616 19.2375C4.93979 19.2275 5.32318 19.0831 5.6055 18.8346C5.88783 18.5861 6.04703 18.253 6.04956 17.9055V10.6258C6.04703 10.2783 5.88783 9.94513 5.6055 9.69664C5.32318 9.44816 4.93979 9.30373 4.53616 9.2938C4.13252 9.28387 3.74018 9.40922 3.44183 9.64342C3.14347 9.87762 2.96242 10.2024 2.93684 10.5492C2.7563 10.4457 2.55254 10.3759 2.33872 10.3444V8.9916C2.33872 4.3653 6.71157 0.602458 12.0863 0.602458C17.4609 0.602458 21.8338 4.3653 21.8338 8.9916V10.3273C21.5585 10.3409 21.2925 10.4175 21.0632 10.5492C21.0384 10.2018 20.8577 9.87633 20.5592 9.64152C20.2607 9.4067 19.8679 9.28098 19.4636 9.29092C19.0594 9.30087 18.6755 9.44569 18.3931 9.6948C18.1107 9.9439 17.9519 10.2778 17.9502 10.6258V17.9053C17.9505 18.1925 18.0578 18.4721 18.2563 18.7029C18.4548 18.9338 18.7341 19.1038 19.0532 19.1879C18.8459 19.66 18.5447 20.0975 18.1631 20.4807C17.1791 21.4666 15.7754 21.9965 13.9874 22.0558C13.9711 21.6983 13.7948 21.3601 13.4954 21.1119C13.1959 20.8638 12.7966 20.725 12.3809 20.7246H10.9282C10.5018 20.725 10.0931 20.8709 9.79163 21.1304C9.49016 21.3899 9.32059 21.7417 9.32011 22.1087V22.6163C9.32071 22.9832 9.49034 23.3349 9.79179 23.5943C10.0932 23.8537 10.5019 23.9996 10.9282 24H12.3809C12.799 23.9996 13.2005 23.8591 13.5004 23.6084C13.8003 23.3577 13.9751 23.0164 13.9878 22.6567C16.4914 22.5764 17.9373 21.6399 18.7172 20.8482C19.1888 20.3709 19.5491 19.8198 19.7784 19.2252C20.1237 19.1723 20.4382 19.0208 20.6712 18.7951C20.9042 18.5695 21.042 18.2828 21.0625 17.9814C21.3175 18.1282 21.6174 18.2064 21.9241 18.2061H22.4434C22.8565 18.2057 23.2525 18.0643 23.5446 17.8129C23.8367 17.5615 24.0009 17.2207 24.0014 16.8651V11.6657C24.0008 11.3237 23.8487 10.9947 23.5759 10.746C23.3032 10.4973 22.9304 10.3475 22.5337 10.3273Z" fill="#4EC259"/>
    </symbol>
    <symbol id="icon-phone-green" width="18" height="19" viewBox="0 0 18 19" fill="none" xmlns="http://www.w3.org/2000/svg">
    <path d="M17.4873 14.6402L13.4223 10.9442C13.2301 10.7696 12.9776 10.6764 12.7181 10.6845C12.4585 10.6925 12.2123 10.8011 12.0313 10.9872L9.63828 13.4482C9.06228 13.3382 7.90428 12.9772 6.71228 11.7882C5.52028 10.5952 5.15928 9.43424 5.05228 8.86224L7.51128 6.46824C7.69769 6.28737 7.80642 6.04106 7.81444 5.78145C7.82247 5.52183 7.72917 5.26928 7.55428 5.07724L3.85928 1.01324C3.68432 0.820596 3.44116 0.703743 3.18143 0.687499C2.92171 0.671254 2.66588 0.756897 2.46828 0.926239L0.298282 2.78724C0.125393 2.96075 0.0222015 3.19169 0.00828196 3.43624C-0.00671804 3.68624 -0.292718 9.60824 4.29928 14.2022C8.30528 18.2072 13.3233 18.5002 14.7053 18.5002C14.9073 18.5002 15.0313 18.4942 15.0643 18.4922C15.3088 18.4786 15.5396 18.3749 15.7123 18.2012L17.5723 16.0302C17.7423 15.8333 17.8286 15.5776 17.8127 15.3179C17.7968 15.0582 17.68 14.815 17.4873 14.6402Z" fill="#4EC259"/>
    </symbol>
    <symbol id="icon-message" width="24" height="25" viewBox="0 0 24 25" fill="none" xmlns="http://www.w3.org/2000/svg">
    <g clip-path="url(#clip0_1_1056)">
    <path d="M21.5531 4.49994C21.4622 4.49058 21.3706 4.49058 21.2798 4.49994H2.6131C2.49346 4.50179 2.37462 4.51972 2.25977 4.55328L11.8931 14.1466L21.5531 4.49994Z" fill="#4EC259"/>
    <path d="M22.5398 5.42651L12.8331 15.0932C12.5833 15.3415 12.2454 15.4809 11.8931 15.4809C11.5409 15.4809 11.2029 15.3415 10.9531 15.0932L1.33312 5.49985C1.30355 5.60854 1.28787 5.72054 1.28645 5.83318V19.1665C1.28645 19.5201 1.42693 19.8593 1.67698 20.1093C1.92703 20.3594 2.26616 20.4998 2.61979 20.4998H21.2865C21.6401 20.4998 21.9792 20.3594 22.2293 20.1093C22.4793 19.8593 22.6198 19.5201 22.6198 19.1665V5.83318C22.6145 5.69428 22.5875 5.55707 22.5398 5.42651ZM3.53312 19.1665H2.60645V18.2132L7.45312 13.4065L8.39312 14.3465L3.53312 19.1665ZM21.2731 19.1665H20.3398L15.4798 14.3465L16.4198 13.4065L21.2665 18.2132L21.2731 19.1665Z" fill="#4EC259"/>
    </g>
    <defs>
    <clipPath id="clip0_1_1056">
    <rect width="24" height="24" fill="white" transform="translate(0 0.5)"/>
    </clipPath>
    </defs>
    </symbol>
    <symbol id="icon-burger" width="25" height="14" viewBox="0 0 25 14" fill="none" xmlns="http://www.w3.org/2000/svg">
    <rect x="0.5" width="24" height="2" rx="1" fill="#67D23C"/>
    <rect x="0.5" y="6" width="24" height="2" rx="1" fill="#67D23C"/>
    <rect x="0.5" y="12" width="24" height="2" rx="1" fill="#67D23C"/>
    </symbol>



</svg>