<svg>
    <symbol id="icon-geo" width="17" height="23" viewBox="0 0 17 23" fill="none" xmlns="http://www.w3.org/2000/svg">
    <path d="M8.16632 0.833344C6.08979 0.835078 4.09831 1.65847 2.62686 3.12367C1.15541 4.58888 0.323555 6.57683 0.312988 8.65334C0.312988 11.7667 2.05966 14.3733 3.33966 16.2733L3.57299 16.62C4.84651 18.4658 6.2127 20.2458 7.66632 21.9533L8.17299 22.5467L8.67966 21.9533C10.1331 20.2457 11.4993 18.4656 12.773 16.62L13.0063 16.2667C14.2797 14.3667 16.0263 11.7667 16.0263 8.65334C16.0157 6.57568 15.183 4.58672 13.7101 3.12132C12.2372 1.65593 10.244 0.833317 8.16632 0.833344ZM8.16632 12.1667C7.30136 12.1667 6.45582 11.9102 5.73663 11.4296C5.01744 10.9491 4.4569 10.2661 4.12589 9.46695C3.79488 8.66782 3.70827 7.78849 3.87702 6.94015C4.04577 6.0918 4.46229 5.31255 5.07391 4.70093C5.68553 4.08931 6.46478 3.67279 7.31313 3.50404C8.16147 3.3353 9.0408 3.4219 9.83992 3.75291C10.639 4.08392 11.3221 4.64446 11.8026 5.36365C12.2832 6.08284 12.5397 6.92838 12.5397 7.79334C12.5397 8.95322 12.0789 10.0656 11.2587 10.8858C10.4386 11.7059 9.3262 12.1667 8.16632 12.1667Z" fill="#4EC259"/>
    </symbol>
    <symbol id="icon-arrow" width="14" height="8" viewBox="0 0 14 8" fill="none" xmlns="http://www.w3.org/2000/svg">
    <path d="M1 1L7.26087 7L13 1" stroke="white"/>
    </symbol>
    <symbol id="icon-ellipse" width="9" height="9" viewBox="0 0 9 9" fill="none" xmlns="http://www.w3.org/2000/svg">
    <circle cx="4.94995" cy="4.5" r="4" fill="#4EC259"/>
    </symbol>
    <symbol id="icon-person" width="24" height="24" viewBox="0 0 24 24" fill="none" xmlns="http://www.w3.org/2000/svg">
    <path d="M11.7344 12C14.4958 12 16.7344 9.76142 16.7344 7C16.7344 4.23858 14.4958 2 11.7344 2C8.97295 2 6.73438 4.23858 6.73438 7C6.73438 9.76142 8.97295 12 11.7344 12Z" stroke="#868686" stroke-width="2"/>
    <path d="M16.7344 14H17.0864C17.8175 14.0002 18.5234 14.2674 19.0714 14.7513C19.6194 15.2352 19.9718 15.9026 20.0624 16.628L20.4534 19.752C20.4886 20.0334 20.4635 20.3191 20.3798 20.5901C20.2961 20.8611 20.1558 21.1112 19.9681 21.3238C19.7803 21.5364 19.5495 21.7066 19.291 21.8232C19.0324 21.9398 18.7521 22.0001 18.4684 22H5.00044C4.71682 22.0001 4.43643 21.9398 4.17788 21.8232C3.91933 21.7066 3.68854 21.5364 3.50081 21.3238C3.31309 21.1112 3.17272 20.8611 3.08904 20.5901C3.00536 20.3191 2.98027 20.0334 3.01544 19.752L3.40544 16.628C3.49613 15.9022 3.84885 15.2346 4.39727 14.7506C4.94568 14.2667 5.65201 13.9997 6.38344 14H6.73444" stroke="#868686" stroke-width="2" stroke-linecap="round" stroke-linejoin="round"/>
    </symbol>
    <symbol id="icon-phone" width="20" height="20" viewBox="0 0 20 20" fill="none" xmlns="http://www.w3.org/2000/svg">
    <path d="M1.44297 3.59453L3.93906 1.10078C4.24375 0.796094 4.65156 0.625 5.08281 0.625C5.51406 0.625 5.92188 0.79375 6.22656 1.10078L8.91484 3.78437C9.21953 4.08906 9.39062 4.49922 9.39062 4.93047C9.39062 5.36406 9.22188 5.76953 8.91484 6.07656L6.81484 8.17891C7.29324 9.29356 7.98061 10.3063 8.83984 11.1625C9.7 12.0273 10.7055 12.7094 11.8211 13.1922L13.9211 11.0898C14.2258 10.7852 14.6336 10.6141 15.0648 10.6141C15.2776 10.6133 15.4883 10.655 15.6847 10.7366C15.8811 10.8183 16.0592 10.9384 16.2086 11.0898L18.8992 13.7734C19.2039 14.0781 19.375 14.4883 19.375 14.9195C19.375 15.3531 19.2062 15.7586 18.8992 16.0656L16.4055 18.5594C15.8852 19.0797 15.168 19.3773 14.432 19.3773C14.2797 19.3773 14.132 19.3656 13.982 19.3398C10.8789 18.8289 7.79922 17.1766 5.3125 14.6922C2.82812 12.2031 1.17812 9.12344 0.662498 6.01797C0.514843 5.13672 0.810158 4.22969 1.44297 3.59453ZM2.32422 5.73906C2.78125 8.50234 4.26719 11.2586 6.50547 13.4969C8.74375 15.7352 11.4977 17.2211 14.2609 17.6781C14.6078 17.7367 14.9641 17.6195 15.2172 17.3687L17.6664 14.9195L15.0695 12.3203L12.2617 15.1328L12.2406 15.1539L11.7344 14.9664C10.1994 14.402 8.80547 13.5107 7.64924 12.354C6.49301 11.1974 5.60211 9.80315 5.03828 8.26797L4.85078 7.76172L7.68203 4.93281L5.08516 2.33359L2.63594 4.78281C2.38281 5.03594 2.26562 5.39219 2.32422 5.73906Z" fill="#868686"/>
    </symbol>


</svg>